HIERARCHY
ROOT Hips
{
	OFFSET 12.274321 99.969612 -113.809723
	CHANNELS 6 Xposition Yposition Zposition Xrotation Yrotation Zrotation
	JOINT LeftUpLeg
	{
		OFFSET 8.910002 -6.269997 0.000000
		CHANNELS 6 Xposition Yposition Zposition Xrotation Yrotation Zrotation
		JOINT LeftLeg
		{
			OFFSET -0.103842 -44.878361 -0.122574
			CHANNELS 6 Xposition Yposition Zposition Xrotation Yrotation Zrotation
			JOINT LeftFoot
			{
				OFFSET -0.094175 -40.700405 -0.191460
				CHANNELS 6 Xposition Yposition Zposition Xrotation Yrotation Zrotation
				JOINT LeftToeBase
				{
					OFFSET 0.000008 -6.262320 12.954727
					CHANNELS 6 Xposition Yposition Zposition Xrotation Yrotation Zrotation
					JOINT LeftToeBaseEnd
					{
						OFFSET -0.000135 -0.000000 8.000000
						CHANNELS 6 Xposition Yposition Zposition Xrotation Yrotation Zrotation
						End Site
						{
							OFFSET 0.000639 8.000002 0.000000
						}
					}
				}
			}
		}
	}
	JOINT RightUpLeg
	{
		OFFSET -8.910001 -6.269997 0.000000
		CHANNELS 6 Xposition Yposition Zposition Xrotation Yrotation Zrotation
		JOINT RightLeg
		{
			OFFSET -0.101007 -44.878124 0.191986
			CHANNELS 6 Xposition Yposition Zposition Xrotation Yrotation Zrotation
			JOINT RightFoot
			{
				OFFSET -0.091601 -40.700821 -0.052887
				CHANNELS 6 Xposition Yposition Zposition Xrotation Yrotation Zrotation
				JOINT RightToeBase
				{
					OFFSET -0.001086 -6.262319 12.954750
					CHANNELS 6 Xposition Yposition Zposition Xrotation Yrotation Zrotation
					JOINT RightToeBaseEnd
					{
						OFFSET -0.000851 -0.000407 8.000000
						CHANNELS 6 Xposition Yposition Zposition Xrotation Yrotation Zrotation
						End Site
						{
							OFFSET 0.000058 8.000002 0.000404
						}
					}
				}
			}
		}
	}
	JOINT Spine
	{
		OFFSET 0.000000 7.000000 0.000000
		CHANNELS 6 Xposition Yposition Zposition Xrotation Yrotation Zrotation
		JOINT Spine1
		{
			OFFSET -0.023388 12.548241 -1.727875
			CHANNELS 3 Xrotation Yrotation Zrotation
			JOINT Spine2
			{
				OFFSET -0.011827 12.636490 -0.873764
				CHANNELS 3 Xrotation Yrotation Zrotation
				JOINT LeftShoulder
				{
					OFFSET 6.999763 14.255325 -0.017601
					CHANNELS 6 Xposition Yposition Zposition Xrotation Yrotation Zrotation
					JOINT LeftArm
					{
						OFFSET 10.707253 0.000320 0.000000
						CHANNELS 6 Xposition Yposition Zposition Xrotation Yrotation Zrotation
						JOINT LeftForeArm
						{
							OFFSET 27.305473 0.000443 0.000008
							CHANNELS 6 Xposition Yposition Zposition Xrotation Yrotation Zrotation
							JOINT LeftHand
							{
								OFFSET 26.697151 0.000443 -0.000008
								CHANNELS 6 Xposition Yposition Zposition Xrotation Yrotation Zrotation
								JOINT LeftHandThumb1
								{
									OFFSET 4.348778 -0.793137 4.283417
									CHANNELS 6 Xposition Yposition Zposition Xrotation Yrotation Zrotation
									JOINT LeftHandThumb2
									{
										OFFSET 2.512596 -0.535187 0.708115
										CHANNELS 6 Xposition Yposition Zposition Xrotation Yrotation Zrotation
										JOINT LeftHandThumb3
										{
											OFFSET 2.543137 0.000046 0.000008
											CHANNELS 6 Xposition Yposition Zposition Xrotation Yrotation Zrotation
											JOINT LeftHandThumb4
											{
												OFFSET 2.666748 0.000061 -0.000008
												CHANNELS 6 Xposition Yposition Zposition Xrotation Yrotation Zrotation
												End Site
												{
													OFFSET -0.000061 2.666748 -0.003296
												}
											}
										}
									}
								}
								JOINT LeftHandIndex1
								{
									OFFSET 8.821976 0.204178 3.471420
									CHANNELS 6 Xposition Yposition Zposition Xrotation Yrotation Zrotation
									JOINT LeftHandIndex2
									{
										OFFSET 4.225319 0.000076 -0.000259
										CHANNELS 6 Xposition Yposition Zposition Xrotation Yrotation Zrotation
										JOINT LeftHandIndex3
										{
											OFFSET 2.652321 -0.000076 -0.092789
											CHANNELS 6 Xposition Yposition Zposition Xrotation Yrotation Zrotation
											JOINT LeftHandIndex4
											{
												OFFSET 1.953438 -0.000137 -0.136719
												CHANNELS 6 Xposition Yposition Zposition Xrotation Yrotation Zrotation
												End Site
												{
													OFFSET -0.000046 1.958221 -0.002419
												}
											}
										}
									}
								}
								JOINT LeftHandMiddle1
								{
									OFFSET 8.809875 0.502655 1.304062
									CHANNELS 6 Xposition Yposition Zposition Xrotation Yrotation Zrotation
									JOINT LeftHandMiddle2
									{
										OFFSET 4.863251 0.000076 0.000000
										CHANNELS 6 Xposition Yposition Zposition Xrotation Yrotation Zrotation
										JOINT LeftHandMiddle3
										{
											OFFSET 2.765236 0.000046 -0.000175
											CHANNELS 6 Xposition Yposition Zposition Xrotation Yrotation Zrotation
											JOINT LeftHandMiddle4
											{
												OFFSET 2.005630 0.000031 -0.000252
												CHANNELS 6 Xposition Yposition Zposition Xrotation Yrotation Zrotation
												End Site
												{
													OFFSET -0.000031 2.005630 -0.002480
												}
											}
										}
									}
								}
								JOINT LeftHandRing1
								{
									OFFSET 8.893753 0.379105 -0.793625
									CHANNELS 6 Xposition Yposition Zposition Xrotation Yrotation Zrotation
									JOINT LeftHandRing2
									{
										OFFSET 4.537758 0.000076 -0.000282
										CHANNELS 6 Xposition Yposition Zposition Xrotation Yrotation Zrotation
										JOINT LeftHandRing3
										{
											OFFSET 2.304527 0.000046 -0.000290
											CHANNELS 6 Xposition Yposition Zposition Xrotation Yrotation Zrotation
											JOINT LeftHandRing4
											{
												OFFSET 1.923347 0.000031 -0.000359
												CHANNELS 6 Xposition Yposition Zposition Xrotation Yrotation Zrotation
												End Site
												{
													OFFSET -0.000031 1.923340 -0.002373
												}
											}
										}
									}
								}
								JOINT LeftHandPinky1
								{
									OFFSET 8.882286 -0.315948 -2.489967
									CHANNELS 6 Xposition Yposition Zposition Xrotation Yrotation Zrotation
									JOINT LeftHandPinky2
									{
										OFFSET 3.044098 0.000046 0.000000
										CHANNELS 6 Xposition Yposition Zposition Xrotation Yrotation Zrotation
										JOINT LeftHandPinky3
										{
											OFFSET 1.974503 0.000000 0.000000
											CHANNELS 6 Xposition Yposition Zposition Xrotation Yrotation Zrotation
											JOINT LeftHandPinky4
											{
												OFFSET 1.666611 -0.000015 0.000000
												CHANNELS 6 Xposition Yposition Zposition Xrotation Yrotation Zrotation
												End Site
												{
													OFFSET 0.000038 1.666611 -0.002060
												}
											}
										}
									}
								}
							}
						}
					}
				}
				JOINT RightShoulder
				{
					OFFSET -7.000239 14.255096 -0.017601
					CHANNELS 6 Xposition Yposition Zposition Xrotation Yrotation Zrotation
					JOINT RightArm
					{
						OFFSET -10.707277 0.000244 0.000000
						CHANNELS 6 Xposition Yposition Zposition Xrotation Yrotation Zrotation
						JOINT RightForeArm
						{
							OFFSET -27.305599 -0.000458 0.000000
							CHANNELS 6 Xposition Yposition Zposition Xrotation Yrotation Zrotation
							JOINT RightHand
							{
								OFFSET -26.696995 0.002319 -0.000008
								CHANNELS 6 Xposition Yposition Zposition Xrotation Yrotation Zrotation
								JOINT RightHandThumb1
								{
									OFFSET -4.348450 -0.792847 4.283798
									CHANNELS 6 Xposition Yposition Zposition Xrotation Yrotation Zrotation
									JOINT RightHandThumb2
									{
										OFFSET -2.512577 -0.534988 0.708336
										CHANNELS 6 Xposition Yposition Zposition Xrotation Yrotation Zrotation
										JOINT RightHandThumb3
										{
											OFFSET -2.541588 0.000336 0.088821
											CHANNELS 6 Xposition Yposition Zposition Xrotation Yrotation Zrotation
											JOINT RightHandThumb4
											{
												OFFSET -2.665123 0.000320 0.093140
												CHANNELS 6 Xposition Yposition Zposition Xrotation Yrotation Zrotation
												End Site
												{
													OFFSET 0.000183 2.666748 -0.003296
												}
											}
										}
									}
								}
								JOINT RightHandIndex1
								{
									OFFSET -8.821651 0.204773 3.472191
									CHANNELS 6 Xposition Yposition Zposition Xrotation Yrotation Zrotation
									JOINT RightHandIndex2
									{
										OFFSET -4.225319 0.000366 0.000114
										CHANNELS 6 Xposition Yposition Zposition Xrotation Yrotation Zrotation
										JOINT RightHandIndex3
										{
											OFFSET -2.652321 0.000351 0.092697
											CHANNELS 6 Xposition Yposition Zposition Xrotation Yrotation Zrotation
											JOINT RightHandIndex4
											{
												OFFSET -1.953445 0.000336 0.136658
												CHANNELS 6 Xposition Yposition Zposition Xrotation Yrotation Zrotation
												End Site
												{
													OFFSET 0.000168 1.958221 -0.002419
												}
											}
										}
									}
								}
								JOINT RightHandMiddle1
								{
									OFFSET -8.809727 0.503265 1.304840
									CHANNELS 6 Xposition Yposition Zposition Xrotation Yrotation Zrotation
									JOINT RightHandMiddle2
									{
										OFFSET -4.863251 0.000427 0.000130
										CHANNELS 6 Xposition Yposition Zposition Xrotation Yrotation Zrotation
										JOINT RightHandMiddle3
										{
											OFFSET -2.763550 0.000366 0.096581
											CHANNELS 6 Xposition Yposition Zposition Xrotation Yrotation Zrotation
											JOINT RightHandMiddle4
											{
												OFFSET -2.000740 0.000351 0.139961
												CHANNELS 6 Xposition Yposition Zposition Xrotation Yrotation Zrotation
												End Site
												{
													OFFSET 0.000175 2.005630 -0.002480
												}
											}
										}
									}
								}
								JOINT RightHandRing1
								{
									OFFSET -8.893795 0.379715 -0.792847
									CHANNELS 6 Xposition Yposition Zposition Xrotation Yrotation Zrotation
									JOINT RightHandRing2
									{
										OFFSET -4.537766 0.000397 0.000122
										CHANNELS 6 Xposition Yposition Zposition Xrotation Yrotation Zrotation
										JOINT RightHandRing3
										{
											OFFSET -2.303116 0.000290 0.080490
											CHANNELS 6 Xposition Yposition Zposition Xrotation Yrotation Zrotation
											JOINT RightHandRing4
											{
												OFFSET -1.918663 0.000336 0.134224
												CHANNELS 6 Xposition Yposition Zposition Xrotation Yrotation Zrotation
												End Site
												{
													OFFSET 0.000160 1.923355 -0.002373
												}
											}
										}
									}
								}
								JOINT RightHandPinky1
								{
									OFFSET -8.882519 -0.315338 -2.489189
									CHANNELS 6 Xposition Yposition Zposition Xrotation Yrotation Zrotation
									JOINT RightHandPinky2
									{
										OFFSET -3.047798 0.000259 0.000084
										CHANNELS 6 Xposition Yposition Zposition Xrotation Yrotation Zrotation
										JOINT RightHandPinky3
										{
											OFFSET -1.975693 0.000244 0.069046
											CHANNELS 6 Xposition Yposition Zposition Xrotation Yrotation Zrotation
											JOINT RightHandPinky4
											{
												OFFSET -1.664574 0.000320 0.116447
												CHANNELS 6 Xposition Yposition Zposition Xrotation Yrotation Zrotation
												End Site
												{
													OFFSET 0.000214 1.668640 -0.002068
												}
											}
										}
									}
								}
							}
						}
					}
				}
				JOINT Neck
				{
					OFFSET -0.000212 12.666656 -0.015640
					CHANNELS 6 Xposition Yposition Zposition Xrotation Yrotation Zrotation
					JOINT Head
					{
						OFFSET 0.011088 9.988190 0.485672
						CHANNELS 3 Xrotation Yrotation Zrotation
						JOINT HeadEnd
						{
							OFFSET 0.000000 20.000000 0.000000
							CHANNELS 3 Xrotation Yrotation Zrotation
							End Site
							{
								OFFSET 0.000000 20.000000 0.000000
							}
						}
					}
				}
			}
		}
	}
}
MOTION
Frames: 3
Frame Time: 0.008333
8.559267 102.288857 -114.643127 0.072679 -28.314819 4.896509 8.910002 -6.270000 -0.000007 -17.094978 7.873222 -3.085769 -0.103844 -44.878342 -0.122587 46.505204 -0.623117 -0.924354 -0.094178 -40.700401 -0.191473 12.831495 3.027216 -5.230918 0.000004 -6.262322 12.954731 -32.389484 -0.150651 0.762799 -0.000132 -0.000001 7.999993 0.000000 -0.000001 0.000000 -8.909991 -6.270016 0.000023 -4.590897 41.420719 -2.703925 -0.101010 -44.878109 0.192002 21.787569 -0.049850 -0.435668 -0.091599 -40.700821 -0.052896 -14.968933 -1.142433 6.827017 -0.001089 -6.262319 12.954763 1.964368 -0.002481 -0.042585 -0.000850 -0.000407 7.999992 -0.000000 0.000001 -0.000000 -0.000000 6.999990 0.000018 -4.943758 0.290018 9.906181 3.925966 -2.358068 -9.133956 3.880794 -1.486379 -9.407268 6.999762 14.255322 -0.017617 18.356314 -8.312389 -26.472498 10.707253 0.000324 0.000014 61.456840 -47.821242 -24.340588 27.305468 0.000455 0.000011 169.391505 -86.593931 169.653962 26.697145 0.000467 -0.000011 19.078042 19.650015 10.161311 4.348777 -0.793110 4.283402 12.144663 2.832495 -28.385062 2.512603 -0.535199 0.708110 -0.605228 6.865536 -0.404821 2.543125 0.000083 0.000008 -0.605221 6.865538 -0.404809 2.666742 0.000044 -0.000020 -0.605218 6.865540 -0.404831 8.821964 0.204185 3.471410 -2.914356 -10.584678 -13.966840 4.225320 0.000085 -0.000265 -0.167973 -0.042065 -6.903565 2.652331 -0.000064 -0.092790 -0.168004 -0.042055 -6.904018 1.953438 -0.000108 -0.136711 -0.167942 -0.042080 -6.903997 8.809873 0.502678 1.304051 -1.240287 -3.774434 -13.809738 4.863256 0.000059 -0.000002 -0.167982 -0.042054 -6.903954 2.765233 0.000055 -0.000176 -0.167980 -0.042072 -6.904021 2.005627 0.000034 -0.000262 -0.167979 -0.042073 -6.904012 8.893759 0.379138 -0.793643 1.441507 7.224536 -13.975785 4.537761 0.000089 -0.000288 -0.167983 -0.042060 -6.904032 2.304532 0.000051 -0.000311 -0.167971 -0.042058 -6.904009 1.923348 0.000054 -0.000364 -0.167987 -0.042062 -6.904003 8.882290 -0.315951 -2.489969 3.611349 15.729468 -14.474472 3.044123 0.000079 0.000011 -0.167984 -0.042078 -6.904008 1.974519 -0.000008 0.000006 -0.167970 -0.042073 -6.904032 1.666623 -0.000026 0.000013 -0.167977 -0.042082 -6.903994 -7.000240 14.255104 -0.017619 16.604781 1.506693 6.306948 -10.707284 0.000244 -0.000001 -164.703728 41.578179 97.803617 -27.305624 -0.000433 0.000016 0.046337 21.558285 -0.050729 -26.696968 0.002331 -0.000009 -36.376191 19.082848 -42.207919 -4.348446 -0.792858 4.283796 16.602571 -1.802594 34.521166 -2.512601 -0.534996 0.708330 -0.682575 -8.179375 0.468719 -2.541606 0.000314 0.088804 -0.682586 -8.179374 0.468720 -2.665129 0.000346 0.093117 -0.682571 -8.179374 0.468724 -8.821653 0.204780 3.472205 -2.832936 10.969191 16.729360 -4.225308 0.000352 0.000123 0.200840 0.032694 8.221320 -2.652316 0.000361 0.092686 0.200861 0.032712 8.221299 -1.953455 0.000330 0.136668 0.200823 0.032718 8.221315 -8.809713 0.503277 1.304861 -0.894918 4.484552 16.483673 -4.863254 0.000414 0.000140 0.200841 0.032695 8.221314 -2.763537 0.000365 0.096589 0.200839 0.032724 8.221298 -2.000755 0.000336 0.139960 0.200826 0.032720 8.221325 -8.893775 0.379723 -0.792841 0.943827 -1.777257 16.454942 -4.537764 0.000385 0.000130 0.200841 0.032702 8.221207 -2.303095 0.000320 0.080481 0.200837 0.032703 8.221304 -1.918627 0.000328 0.134239 0.200842 0.032700 8.221317 -8.882507 -0.315343 -2.489184 4.696577 -14.245760 17.010813 -3.047831 0.000267 0.000125 0.200826 0.032706 8.219836 -1.975687 0.000247 0.069047 0.200817 0.032694 8.221317 -1.664564 0.000315 0.116477 0.200838 0.032716 8.221310 -0.000215 12.666676 -0.015657 -0.789832 11.010578 -3.119442 5.046017 19.526160 5.068087 -0.000000 0.000000 0.000000 
8.215674 102.439697 -114.358337 -1.866048 -30.104421 5.176962 8.910004 -6.270000 -0.000003 -14.003432 10.151685 -3.773764 -0.103843 -44.878357 -0.122575 45.177620 -0.588601 -0.906071 -0.094172 -40.700397 -0.191479 13.549526 2.657877 -4.837239 0.000009 -6.262311 12.954727 -32.820620 -0.155492 0.772035 -0.000141 -0.000001 8.000008 0.000000 0.000000 -0.000000 -8.909992 -6.269998 0.000000 -1.601607 43.229661 -4.073406 -0.101007 -44.878132 0.192002 22.016978 -0.059960 -0.441348 -0.091597 -40.700817 -0.052885 -15.215814 -1.411041 6.383533 -0.001086 -6.262318 12.954742 1.830285 -0.002656 -0.042749 -0.000851 -0.000405 8.000008 0.000000 0.000001 -0.000000 0.000000 6.999990 0.000012 -4.768942 0.419388 9.571322 4.299656 -2.499440 -9.956805 4.269952 -1.520615 -10.240259 6.999774 14.255309 -0.017601 17.672411 -7.290604 -27.853383 10.707241 0.000320 -0.000008 62.028937 -45.610682 -24.479434 27.305473 0.000428 0.000009 172.403373 -85.176250 172.669163 26.697151 0.000437 -0.000008 19.916410 19.647133 8.418733 4.348789 -0.793163 4.283423 12.144662 2.832497 -28.385062 2.512615 -0.535166 0.708123 -0.605229 6.865529 -0.404817 2.543141 0.000052 -0.000001 -0.605215 6.865535 -0.404807 2.666745 0.000060 -0.000024 -0.605219 6.865545 -0.404830 8.821962 0.204154 3.471426 -2.914356 -10.584678 -13.966838 4.225320 0.000056 -0.000259 -0.167973 -0.042065 -6.903567 2.652309 -0.000049 -0.092792 -0.168003 -0.042059 -6.904018 1.953428 -0.000132 -0.136731 -0.167941 -0.042078 -6.904000 8.809872 0.502662 1.304057 -1.240286 -3.774432 -13.809739 4.863258 0.000071 -0.000011 -0.167981 -0.042056 -6.903948 2.765231 0.000040 -0.000181 -0.167979 -0.042073 -6.904017 2.005638 0.000036 -0.000252 -0.167977 -0.042073 -6.904019 8.893752 0.379108 -0.793630 1.441506 7.224543 -13.975784 4.537780 0.000018 -0.000276 -0.167980 -0.042063 -6.904028 2.304541 0.000029 -0.000292 -0.167971 -0.042064 -6.904004 1.923348 0.000047 -0.000363 -0.167987 -0.042062 -6.904000 8.882290 -0.315972 -2.489961 3.611347 15.729470 -14.474472 3.044112 0.000078 -0.000013 -0.167981 -0.042082 -6.904006 1.974494 0.000012 -0.000002 -0.167974 -0.042069 -6.904038 1.666623 0.000008 0.000009 -0.167980 -0.042082 -6.903991 -7.000237 14.255110 -0.017590 14.754942 -1.221994 4.032250 -10.707273 0.000265 0.000009 -164.763260 42.944323 98.696964 -27.305616 -0.000419 0.000029 0.029975 15.152583 -0.031878 -26.696972 0.002340 -0.000027 -52.433914 16.257752 -31.922095 -4.348460 -0.792858 4.283789 16.602573 -1.802593 34.521169 -2.512561 -0.534990 0.708342 -0.682579 -8.179372 0.468720 -2.541584 0.000353 0.088836 -0.682588 -8.179372 0.468720 -2.665107 0.000345 0.093145 -0.682571 -8.179369 0.468719 -8.821657 0.204781 3.472190 -2.832935 10.969192 16.729367 -4.225330 0.000362 0.000133 0.200837 0.032694 8.221318 -2.652321 0.000363 0.092695 0.200861 0.032714 8.221303 -1.953468 0.000319 0.136658 0.200825 0.032718 8.221315 -8.809727 0.503273 1.304837 -0.894918 4.484553 16.483676 -4.863267 0.000409 0.000138 0.200840 0.032695 8.221313 -2.763555 0.000372 0.096596 0.200841 0.032724 8.221299 -2.000734 0.000327 0.139981 0.200830 0.032721 8.221324 -8.893799 0.379701 -0.792853 0.943830 -1.777257 16.454945 -4.537773 0.000366 0.000114 0.200841 0.032710 8.221206 -2.303153 0.000311 0.080491 0.200838 0.032704 8.221302 -1.918665 0.000334 0.134236 0.200840 0.032700 8.221320 -8.882530 -0.315331 -2.489203 4.696580 -14.245760 17.010813 -3.047774 0.000276 0.000090 0.200824 0.032707 8.219833 -1.975705 0.000257 0.069026 0.200815 0.032695 8.221318 -1.664559 0.000332 0.116451 0.200840 0.032714 8.221308 -0.000207 12.666650 -0.015645 0.520617 11.122414 -3.112179 4.678981 20.692692 6.281603 0.000000 -0.000000 0.000000 
7.788785 102.601456 -114.012573 -4.786856 -30.406459 4.698850 8.910004 -6.269986 0.000013 -10.296787 10.275062 -4.738124 -0.103835 -44.878342 -0.122567 43.867436 -0.561727 -0.887290 -0.094176 -40.700405 -0.191489 14.459676 2.392611 -5.102319 0.000006 -6.262312 12.954710 -33.265142 -0.160557 0.781523 -0.000134 0.000000 7.999992 -0.000001 0.000000 0.000000 -8.910002 -6.270000 0.000016 2.471379 43.562407 -5.340246 -0.101005 -44.878136 0.191997 21.885992 -0.069100 -0.436592 -0.091601 -40.700817 -0.052889 -15.429068 -1.804988 5.721007 -0.001084 -6.262319 12.954753 1.755641 -0.002799 -0.042432 -0.000850 -0.000406 8.000000 0.000000 0.000001 -0.000000 0.000003 7.000010 0.000027 -4.444373 0.373291 8.620962 5.030106 -2.731615 -10.202589 4.995100 -1.729948 -10.519789 6.999760 14.255326 -0.017612 17.627115 -6.193424 -28.529642 10.707266 0.000330 -0.000025 62.147106 -44.950626 -24.289317 27.305473 0.000483 0.000011 172.603620 -85.039325 172.869670 26.697159 0.000425 -0.000002 22.659878 19.403345 6.210447 4.348784 -0.793152 4.283413 12.144664 2.832495 -28.385062 2.512612 -0.535191 0.708112 -0.605227 6.865533 -0.404817 2.543125 0.000042 0.000005 -0.605220 6.865537 -0.404813 2.666765 0.000058 -0.000022 -0.605222 6.865544 -0.404829 8.821985 0.204143 3.471415 -2.914353 -10.584679 -13.966840 4.225338 0.000078 -0.000252 -0.167973 -0.042067 -6.903570 2.652324 -0.000085 -0.092790 -0.168005 -0.042057 -6.904012 1.953435 -0.000118 -0.136727 -0.167943 -0.042079 -6.903999 8.809885 0.502620 1.304048 -1.240287 -3.774435 -13.809738 4.863253 0.000076 -0.000011 -0.167981 -0.042056 -6.903951 2.765224 0.000053 -0.000169 -0.167978 -0.042073 -6.904018 2.005633 0.000005 -0.000243 -0.167977 -0.042074 -6.904012 8.893751 0.379097 -0.793629 1.441507 7.224535 -13.975785 4.537769 0.000088 -0.000296 -0.167981 -0.042059 -6.904034 2.304534 0.000056 -0.000289 -0.167972 -0.042061 -6.904009 1.923346 0.000024 -0.000362 -0.167986 -0.042063 -6.904000 8.882290 -0.315968 -2.489989 3.611348 15.729470 -14.474472 3.044107 0.000079 0.000010 -0.167978 -0.042083 -6.904012 1.974488 0.000010 0.000009 -0.167973 -0.042069 -6.904041 1.666613 0.000002 -0.000021 -0.167977 -0.042084 -6.903994 -7.000234 14.255127 -0.017597 12.724758 -4.336651 0.864304 -10.707291 0.000246 -0.000004 -163.494102 46.129219 98.015243 -27.305605 -0.000436 0.000012 0.019334 10.335985 -0.019306 -26.696981 0.002306 -0.000013 -69.855329 2.975615 -24.393221 -4.348446 -0.792854 4.283803 16.602571 -1.802596 34.521169 -2.512594 -0.534964 0.708332 -0.682581 -8.179374 0.468720 -2.541585 0.000370 0.088821 -0.682588 -8.179374 0.468721 -2.665120 0.000318 0.093124 -0.682571 -8.179373 0.468720 -8.821648 0.204779 3.472209 -2.832937 10.969191 16.729362 -4.225326 0.000359 0.000123 0.200837 0.032696 8.221317 -2.652321 0.000366 0.092695 0.200864 0.032712 8.221300 -1.953426 0.000335 0.136681 0.200828 0.032718 8.221318 -8.809711 0.503274 1.304853 -0.894917 4.484552 16.483675 -4.863263 0.000416 0.000132 0.200844 0.032696 8.221313 -2.763526 0.000357 0.096566 0.200842 0.032728 8.221298 -2.000751 0.000321 0.139983 0.200826 0.032718 8.221322 -8.893803 0.379719 -0.792832 0.943828 -1.777256 16.454942 -4.537754 0.000403 0.000122 0.200835 0.032719 8.221219 -2.303099 0.000308 0.080480 0.200838 0.032702 8.221303 -1.918648 0.000341 0.134214 0.200842 0.032703 8.221317 -8.882540 -0.315353 -2.489172 4.696576 -14.245755 17.010813 -3.047797 0.000267 0.000093 0.200826 0.032707 8.219834 -1.975689 0.000262 0.069070 0.200817 0.032692 8.221318 -1.664541 0.000330 0.116458 0.200840 0.032718 8.221308 -0.000212 12.666677 -0.015634 2.266125 10.744665 -3.083794 3.709237 21.361615 7.256075 0.000001 -0.000000 -0.000000 
